<svg width="100" height="95" viewBox="0 0 201 95" fill="none" xmlns="http://www.w3.org/2000/svg">
<path d="M96.4408 40.4055C97.8634 42.5213 98.6034 45.0223 98.5611 47.5715C98.5611 52.6512 96.9321 56.4969 93.6742 59.1086C90.4162 61.7202 85.6899 63.028 79.4952 63.0318H59.2501V10.7096H77.7207C84.025 10.7096 88.8817 11.9058 92.2909 14.2983C95.7 16.6907 97.4008 20.2813 97.3933 25.07C97.4316 27.4229 96.7877 29.7366 95.5394 31.7314C94.2044 33.7684 92.242 35.3148 89.9494 36.1365C92.8672 36.8848 95.031 38.3078 96.4408 40.4055ZM70.5377 19.8315V32.5535H77.7207C80.5743 32.5535 82.6889 32.0319 84.0647 30.9887C85.4423 29.9513 86.1283 28.3979 86.1283 26.3399C86.1283 24.0382 85.465 22.3789 84.1384 21.3622C82.8118 20.3455 80.6725 19.8353 77.7207 19.8315H70.5377ZM85.3403 52.1467C85.9923 51.5572 86.5069 50.8318 86.8478 50.0217C87.1887 49.2115 87.3476 48.3364 87.3132 47.4581C87.3132 42.7639 84.8565 40.4168 79.9431 40.4168H70.5377V53.9608H79.4952C82.0729 53.9608 84.0212 53.358 85.3403 52.1523V52.1467Z" fill="#086BD8"/>
<path d="M139.454 24.1459V63.0317H129.283L129 58.9668C127.799 60.4838 126.259 61.6975 124.504 62.5102C122.596 63.3649 120.522 63.787 118.432 63.7461C114.384 63.7461 111.217 62.5725 108.93 60.2254C106.644 57.8783 105.5 54.2386 105.5 49.3063V24.1459H116.312V49.3687C116.312 51.2849 116.788 52.7022 117.735 53.6093C118.268 54.0848 118.891 54.4502 119.566 54.6846C120.241 54.9191 120.956 55.018 121.669 54.9756C124.999 54.9756 127.31 53.8134 128.603 51.489V24.1459H139.454Z" fill="#086BD8"/>
<path d="M163.339 20.0809C162.859 20.5156 162.483 21.0526 162.239 21.6521C161.994 22.2517 161.888 22.8986 161.927 23.5448V26.6403H169.121V34.0387H161.927V63.0317H151.768V34.0387H146.393V26.6403H151.773V23.5448C151.697 21.1092 152.258 18.6959 153.4 16.5432C154.468 14.6306 156.102 13.0957 158.078 12.1495C160.324 11.1092 162.78 10.599 165.255 10.6585C166.977 10.6658 168.691 10.8906 170.357 11.3275L170.289 19.1624C169.329 18.9473 168.348 18.8464 167.364 18.862C165.622 18.8695 164.28 19.2758 163.339 20.0809Z" fill="#086BD8"/>
<path d="M193.001 20.0808C192.521 20.5155 192.145 21.0525 191.9 21.6521C191.656 22.2516 191.55 22.8985 191.589 23.5447V26.6402H198.789V34.0387H191.589V63.0316H181.435V34.0387H176.055V26.6402H181.435V23.5447C181.361 21.1086 181.924 18.6952 183.068 16.5431C184.132 14.6295 185.764 13.0941 187.74 12.1494C189.986 11.1097 192.442 10.5995 194.917 10.6584C196.639 10.6652 198.354 10.89 200.019 11.3274L199.951 19.1624C198.992 18.9463 198.009 18.8455 197.026 18.8619C195.28 18.8732 193.942 19.2758 193.001 20.0808Z" fill="#086BD8"/>
<path fill-rule="evenodd" clip-rule="evenodd" d="M34.0386 46.6927C32.5042 51.0648 31.7221 55.6655 31.7255 60.2991C31.7255 61.1892 31.7709 62.1189 31.8162 63.0033H52.2825V24.6504C45.3519 28.6541 39.7374 34.5897 36.1249 41.732C35.3442 43.3477 34.6497 45.0036 34.0443 46.6927" fill="#F8AF33"/>
<path fill-rule="evenodd" clip-rule="evenodd" d="M24.5028 30.5805C23.7982 23.4332 21.2402 16.5935 17.0817 10.7379H0.0737305V23.0857C8.76918 23.1756 17.2531 25.7785 24.5028 30.5805Z" fill="#32AC6C"/>
<path fill-rule="evenodd" clip-rule="evenodd" d="M22.4506 10.7096C26.7922 17.7842 29.1227 25.9086 29.1914 34.2089C30.5764 35.3871 31.8778 36.6601 33.0862 38.0187C37.5273 30.1067 44.2239 23.6963 52.3222 19.6048V10.7493L22.4506 10.7096Z" fill="#086BD8"/>
<path fill-rule="evenodd" clip-rule="evenodd" d="M19.236 63.0317H27.2921C27.2468 62.1473 27.2014 61.2176 27.2014 60.3275C27.1952 54.1522 28.4431 48.04 30.8695 42.3614C30.2345 41.562 29.5088 40.808 28.8285 40.0597C27.5255 38.6843 26.1192 37.4107 24.6219 36.2499C17.5922 30.7173 8.94433 27.6389 0 27.4851V63.0317H19.236Z" fill="#086BD8"/>
<path d="M2.14293 75.7028C2.84939 74.4242 3.89247 73.3635 5.15901 72.6357C6.44886 71.8967 7.91322 71.5169 9.39966 71.5358C11.0895 71.4983 12.7533 71.9576 14.1846 72.8568C15.5579 73.7529 16.6041 75.0696 17.1666 76.6099H14.5474C14.1273 75.648 13.4281 74.8343 12.5405 74.2741C11.5917 73.7107 10.5027 73.4276 9.39966 73.4577C8.29637 73.4408 7.20908 73.7229 6.25319 74.2741C5.32998 74.8266 4.58132 75.6284 4.09318 76.5872C3.57077 77.6843 3.29969 78.8842 3.29969 80.0993C3.29969 81.3145 3.57077 82.5143 4.09318 83.6115C4.58814 84.5762 5.34707 85.3803 6.28154 85.9302C7.23743 86.4814 8.32472 86.7635 9.42801 86.7466C10.5297 86.7777 11.6179 86.4987 12.5688 85.9416C13.4557 85.388 14.1551 84.58 14.5758 83.6228H17.195C16.6282 85.1503 15.582 86.4531 14.2129 87.3362C12.7795 88.2293 11.1165 88.6844 9.42801 88.6458C7.94239 88.664 6.47871 88.2864 5.18736 87.5517C3.92262 86.8341 2.8793 85.783 2.17128 84.5129C1.44185 83.1592 1.06 81.6455 1.06 80.1078C1.06 78.5701 1.44185 77.0565 2.17128 75.7028H2.14293Z" fill="white"/>
<path d="M24.2477 75.7141C25.0443 75.2728 25.9454 75.0554 26.8556 75.0848V77.3525H26.2886C23.8319 77.3525 22.6055 78.6754 22.6093 81.321V88.4871H20.4209V75.3286H22.6093V77.4659C22.9722 76.7342 23.5419 76.1251 24.2477 75.7141Z" fill="white"/>
<path d="M41.3293 82.7326H30.7957C30.7969 83.2875 30.9096 83.8365 31.127 84.3471C31.3444 84.8577 31.6621 85.3193 32.0613 85.7048C32.4605 86.0903 32.933 86.3916 33.4509 86.591C33.9688 86.7904 34.5214 86.8837 35.076 86.8655C35.9148 86.8951 36.7423 86.6655 37.4458 86.2079C38.0686 85.7769 38.5358 85.1566 38.7781 84.439H41.1365C40.8004 85.6795 40.0528 86.769 39.0162 87.5288C37.8707 88.3506 36.485 88.7693 35.076 88.7194C33.9025 88.7376 32.7449 88.4463 31.7198 87.8747C30.7353 87.3136 29.931 86.4838 29.401 85.4822C28.8222 84.3742 28.5335 83.1376 28.562 81.8879C28.5391 80.6558 28.8195 79.4371 29.3784 78.3389C29.8941 77.3403 30.6927 76.5161 31.6744 75.9691C32.7167 75.4012 33.8894 75.1158 35.076 75.1413C36.234 75.1177 37.3779 75.3993 38.3926 75.9577C39.3364 76.4837 40.1081 77.2712 40.615 78.2255C41.1459 79.2208 41.4151 80.3347 41.3973 81.4627C41.3973 81.8255 41.3746 82.2677 41.3293 82.7326ZM38.5853 78.8037C38.2276 78.2109 37.7058 77.7343 37.083 77.4318C36.4278 77.1139 35.7078 76.9528 34.9796 76.9612C33.933 76.9336 32.9166 77.3137 32.145 78.0214C31.3377 78.7893 30.8584 79.8394 30.807 80.9524H39.1296C39.1528 80.1994 38.9643 79.4549 38.5853 78.8037Z" fill="white"/>
<path d="M44.2831 78.3389C44.7994 77.3502 45.5858 76.5284 46.5508 75.9691C47.5151 75.4056 48.6146 75.1155 49.7313 75.13C50.7834 75.1018 51.8235 75.3584 52.7417 75.8727C53.5323 76.3157 54.1885 76.964 54.6409 77.7493V75.3455H56.818V88.521H54.6069V86.0492C54.1422 86.8472 53.4729 87.5068 52.668 87.9597C51.7574 88.4794 50.7228 88.7419 49.6746 88.7194C48.556 88.7331 47.456 88.4326 46.4998 87.852C45.5462 87.2641 44.7733 86.4244 44.2661 85.4255C43.7078 84.323 43.4275 83.1008 43.4497 81.8652C43.4297 80.6387 43.7162 79.4266 44.2831 78.3389ZM54.023 79.314C53.651 78.6056 53.0871 78.0162 52.3959 77.6132C51.7055 77.2219 50.9215 77.0259 50.1282 77.0463C49.3355 77.0317 48.553 77.2273 47.8604 77.6132C47.1745 78.0175 46.6165 78.607 46.2504 79.314C45.8364 80.1158 45.6298 81.0084 45.6494 81.9105C45.6293 82.8254 45.8358 83.731 46.2504 84.5468C46.6209 85.2506 47.1779 85.839 47.8604 86.2476C48.5438 86.6362 49.3165 86.8406 50.1027 86.8406C50.8888 86.8406 51.6615 86.6362 52.3449 86.2476C53.035 85.8431 53.5985 85.2541 53.972 84.5468C54.3853 83.7387 54.5918 82.8407 54.5729 81.9332C54.616 81.0221 54.4268 80.1149 54.023 79.297V79.314Z" fill="white"/>
<path d="M63.2016 77.1313V84.8982C63.1741 85.1443 63.1972 85.3934 63.2693 85.6303C63.3414 85.8672 63.4612 86.0869 63.6211 86.2759C64.026 86.5834 64.5328 86.7253 65.0385 86.6727H66.6486V88.5266H64.6756C63.6889 88.6015 62.7104 88.2997 61.9373 87.6819C61.3251 87.1149 61.0246 86.2022 61.0246 84.9209V77.1539H59.3238V75.3511H61.0246V72.0345H63.2073V75.3511H66.6486V77.1539L63.2016 77.1313Z" fill="white"/>
<path d="M69.3584 72.7545C69.1495 72.5457 69.0073 72.2794 68.9499 71.9896C68.8925 71.6998 68.9225 71.3995 69.0361 71.1268C69.1497 70.854 69.3417 70.6212 69.5879 70.4578C69.834 70.2944 70.1231 70.2078 70.4186 70.209C70.6092 70.2063 70.7984 70.2432 70.974 70.3173C71.1497 70.3915 71.308 70.5013 71.439 70.6399C71.7085 70.926 71.8586 71.3042 71.8586 71.6972C71.8586 72.0902 71.7085 72.4684 71.439 72.7545C71.308 72.893 71.1497 73.0029 70.974 73.077C70.7984 73.1512 70.6092 73.1881 70.4186 73.1854C70.2218 73.1902 70.0261 73.1544 69.8437 73.0803C69.6613 73.0061 69.4961 72.8953 69.3584 72.7545ZM71.4731 75.3284V88.5039H69.2904V75.3284H71.4731Z" fill="white"/>
<path d="M80.1076 86.48L84.1895 75.3285H86.5252L81.3548 88.504H78.8093L73.6389 75.3285H75.9916L80.1076 86.48Z" fill="white"/>
<path d="M100.636 82.7325H90.1081C90.1086 83.2871 90.2205 83.836 90.4373 84.3466C90.6541 84.8571 90.9713 85.3189 91.37 85.7044C91.7688 86.0899 92.241 86.3914 92.7585 86.5908C93.2761 86.7903 93.8284 86.8836 94.3828 86.8654C95.2215 86.895 96.049 86.6654 96.7526 86.2078C97.3768 85.7783 97.8444 85.1575 98.0849 84.4389H100.472C100.137 85.6786 99.3914 86.768 98.357 87.5287C97.2027 88.3546 95.8067 88.7734 94.3885 88.7193C93.2167 88.7376 92.0609 88.4462 91.0379 87.8746C90.0522 87.315 89.2475 86.4848 88.7191 85.4821C88.1383 84.3746 87.8477 83.138 87.8744 81.8878C87.8469 80.6462 88.1274 79.4171 88.6908 78.3104C89.1989 77.3159 89.9873 76.492 90.9585 75.9406C92.0008 75.3727 93.1735 75.0874 94.3601 75.1129C95.5199 75.0899 96.6654 75.3714 97.6823 75.9293C98.624 76.4581 99.395 77.2449 99.9047 78.197C100.436 79.1923 100.705 80.3063 100.687 81.4342C100.71 81.8254 100.681 82.2676 100.636 82.7325ZM97.8978 78.8036C97.5363 78.2118 97.013 77.7357 96.3897 77.4317C95.7348 77.1132 95.0146 76.9521 94.2864 76.9611C93.2398 76.9335 92.2234 77.3136 91.4517 78.0213C90.6461 78.7898 90.1687 79.84 90.1195 80.9523H98.4364C98.4586 80.2001 98.2722 79.4564 97.8978 78.8036Z" fill="white"/>
<path d="M110.302 75.7027C111.009 74.4241 112.052 73.3634 113.318 72.6356C114.608 71.8946 116.072 71.5128 117.559 71.53C119.249 71.4918 120.913 71.9512 122.344 72.851C123.717 73.7471 124.763 75.0638 125.326 76.6041H122.707C122.287 75.6422 121.587 74.8285 120.7 74.2683C119.751 73.704 118.662 73.4209 117.559 73.4519C116.456 73.435 115.368 73.7171 114.413 74.2683C113.478 74.8182 112.719 75.6224 112.224 76.5871C111.702 77.6842 111.431 78.8841 111.431 80.0992C111.431 81.3144 111.702 82.5142 112.224 83.6114C112.719 84.576 113.478 85.3802 114.413 85.9301C115.368 86.4813 116.456 86.7634 117.559 86.7465C118.661 86.7785 119.749 86.4995 120.7 85.9415C121.587 85.3879 122.286 84.5798 122.707 83.6227H125.326C124.759 85.1502 123.713 86.453 122.344 87.3361C120.911 88.2298 119.248 88.685 117.559 88.6457C116.073 88.6639 114.61 88.2863 113.318 87.5515C112.054 86.834 111.01 85.7829 110.302 84.5128C109.577 83.1579 109.197 81.6447 109.197 80.1077C109.197 78.5708 109.577 77.0576 110.302 75.7027Z" fill="white"/>
<path d="M130.961 87.8748C129.965 87.3184 129.148 86.4881 128.609 85.4823C128.019 84.3778 127.724 83.1398 127.752 81.888C127.729 80.6429 128.032 79.4133 128.631 78.3219C129.185 77.3158 130.015 76.4894 131.024 75.9408C132.074 75.3943 133.241 75.1089 134.425 75.1089C135.61 75.1089 136.776 75.3943 137.827 75.9408C138.833 76.4884 139.662 77.3102 140.219 78.3106C140.804 79.4155 141.109 80.6465 141.109 81.8964C141.109 83.1464 140.804 84.3774 140.219 85.4823C139.642 86.4908 138.796 87.3191 137.776 87.8748C136.732 88.4402 135.561 88.7308 134.374 88.7195C133.182 88.7442 132.004 88.4528 130.961 87.8748ZM136.529 86.242C137.233 85.859 137.813 85.2827 138.201 84.5809C138.648 83.7555 138.867 82.826 138.836 81.888C138.864 80.9534 138.649 80.0276 138.212 79.2007C137.836 78.5068 137.27 77.9346 136.58 77.5509C135.907 77.1901 135.154 77.0049 134.391 77.0123C133.624 77.0012 132.867 77.1866 132.192 77.5509C131.508 77.9312 130.951 78.5052 130.593 79.2007C130.17 80.0316 129.963 80.9559 129.992 81.888C129.955 82.8278 130.15 83.7622 130.559 84.6092C130.909 85.3014 131.458 85.8737 132.135 86.2533C132.796 86.6256 133.542 86.8209 134.301 86.8203C135.08 86.8178 135.846 86.6189 136.529 86.242Z" fill="white"/>
<path d="M146.144 70.7137V88.5041H143.955V70.7137H146.144Z" fill="white"/>
<path d="M152.063 70.7137V88.5041H149.88V70.7137H152.063Z" fill="white"/>
<path d="M167.733 82.7325H157.205C157.205 83.2876 157.317 83.837 157.534 84.3479C157.751 84.8588 158.069 85.3209 158.469 85.7065C158.868 86.0921 159.341 86.3934 159.859 86.5925C160.377 86.7916 160.93 86.8844 161.485 86.8654C162.322 86.8957 163.148 86.666 163.849 86.2078C164.475 85.7789 164.945 85.1581 165.187 84.4389H167.54C167.205 85.6786 166.46 86.768 165.425 87.5287C164.28 88.3505 162.894 88.7692 161.485 88.7193C160.311 88.7383 159.154 88.4469 158.129 87.8746C157.143 87.315 156.338 86.4848 155.81 85.4821C155.231 84.3741 154.942 83.1375 154.971 81.8878C154.943 80.6462 155.224 79.4171 155.787 78.3104C156.303 77.3119 157.102 76.4876 158.083 75.9406C159.126 75.3727 160.298 75.0874 161.485 75.1129C162.643 75.0906 163.786 75.3721 164.802 75.9293C165.743 76.4581 166.514 77.2449 167.024 78.197C167.555 79.1923 167.824 80.3063 167.806 81.4342C167.805 81.868 167.78 82.3013 167.733 82.7325ZM164.994 78.8036C164.635 78.212 164.114 77.7358 163.492 77.4317C162.837 77.1144 162.117 76.9533 161.389 76.9611C160.342 76.9359 159.327 77.3157 158.554 78.0213C157.748 78.7898 157.271 79.84 157.222 80.9523H165.539C165.562 80.1993 165.373 79.4548 164.994 78.8036Z" fill="white"/>
<path d="M179.116 75.8558C179.914 76.2937 180.575 76.943 181.027 77.7324V75.3286H183.244V88.7932C183.264 89.9103 183.001 91.0143 182.478 92.0021C181.97 92.93 181.207 93.6932 180.279 94.2018C179.253 94.7464 178.106 95.0197 176.945 94.9955C175.41 95.0499 173.896 94.6194 172.619 93.7652C172.062 93.3852 171.591 92.891 171.24 92.3152C170.888 91.7395 170.662 91.0955 170.578 90.426H172.738C172.983 91.2305 173.514 91.9179 174.229 92.3592C175.043 92.8652 175.987 93.1214 176.945 93.0962C177.488 93.1164 178.029 93.0264 178.535 92.8315C179.042 92.6366 179.504 92.3409 179.893 91.9624C180.287 91.5387 180.591 91.0393 180.786 90.4944C180.981 89.9496 181.063 89.3708 181.027 88.7932V86.0266C180.572 86.8366 179.908 87.51 179.105 87.9768C178.202 88.5061 177.169 88.7731 176.123 88.7479C175 88.7629 173.895 88.4621 172.935 87.8797C171.975 87.2973 171.197 86.4568 170.692 85.454C170.134 84.3515 169.853 83.1292 169.875 81.8937C169.847 80.6629 170.128 79.4447 170.692 78.3503C171.209 77.3625 171.995 76.5411 172.96 75.9806C173.926 75.4171 175.027 75.1271 176.146 75.1415C177.182 75.1114 178.207 75.358 179.116 75.8558ZM180.426 79.2971C180.058 78.5879 179.495 77.998 178.805 77.5963C178.114 77.205 177.33 77.009 176.537 77.0294C175.754 77.0193 174.982 77.2148 174.298 77.5963C173.61 77.9989 173.052 78.5888 172.687 79.2971C172.271 80.0979 172.064 80.9913 172.086 81.8937C172.064 82.8088 172.27 83.7151 172.687 84.5299C173.056 85.235 173.614 85.8238 174.298 86.2307C174.98 86.6168 175.753 86.8126 176.537 86.7976C177.33 86.8152 178.113 86.6194 178.805 86.2307C179.494 85.8276 180.056 85.2381 180.426 84.5299C180.842 83.7227 181.049 82.8241 181.027 81.9163C181.049 81.0047 180.836 80.1028 180.409 79.2971H180.426Z" fill="white"/>
<path d="M198.891 82.7325H188.346C188.347 83.2871 188.459 83.836 188.675 84.3466C188.892 84.8571 189.209 85.3189 189.608 85.7044C190.007 86.0899 190.479 86.3914 190.997 86.5908C191.514 86.7903 192.066 86.8836 192.621 86.8654C193.46 86.895 194.287 86.6654 194.991 86.2078C195.615 85.7783 196.082 85.1575 196.323 84.4389H198.681C198.347 85.6786 197.601 86.768 196.567 87.5287C195.412 88.3546 194.016 88.7734 192.598 88.7193C191.426 88.7376 190.271 88.4462 189.248 87.8746C188.262 87.315 187.457 86.4848 186.929 85.4821C186.348 84.3746 186.057 83.138 186.084 81.8878C186.057 80.6462 186.337 79.4171 186.9 78.3104C187.416 77.3119 188.215 76.4876 189.197 75.9406C190.239 75.3727 191.411 75.0874 192.598 75.1129C193.758 75.0899 194.903 75.3714 195.92 75.9293C196.862 76.4581 197.633 77.2449 198.143 78.197C198.674 79.1923 198.943 80.3063 198.925 81.4342C198.965 81.8254 198.936 82.2676 198.891 82.7325ZM196.153 78.8036C195.794 78.212 195.272 77.7358 194.65 77.4317C193.993 77.1139 193.271 76.9529 192.541 76.9611C191.495 76.9335 190.478 77.3136 189.707 78.0213C188.901 78.7898 188.424 79.84 188.374 80.9523H196.691C196.716 80.1998 196.53 79.4554 196.153 78.8036Z" fill="white"/>
<path opacity="0.5" d="M199.237 0.470849C199.764 0.777118 200.198 1.22226 200.49 1.75779C200.787 2.32552 200.942 2.95674 200.942 3.59748C200.942 4.23822 200.787 4.86944 200.49 5.43718C200.2 5.97723 199.766 6.42656 199.237 6.73545C198.682 7.04424 198.058 7.20631 197.423 7.20631C196.788 7.20631 196.163 7.04424 195.609 6.73545C195.078 6.42798 194.644 5.97829 194.356 5.43718C194.059 4.86944 193.903 4.23822 193.903 3.59748C193.903 2.95674 194.059 2.32552 194.356 1.75779C194.646 1.22103 195.08 0.775479 195.609 0.470849C196.163 0.162061 196.788 0 197.423 0C198.058 0 198.682 0.162061 199.237 0.470849ZM198.999 6.3386C199.455 6.06966 199.824 5.67633 200.065 5.20474C200.322 4.70967 200.453 4.15833 200.444 3.60032C200.453 3.04403 200.323 2.49436 200.065 2.00157C199.826 1.52906 199.456 1.1354 198.999 0.867708C198.52 0.590822 197.975 0.449692 197.423 0.459516C197.018 0.444176 196.615 0.514534 196.24 0.665983C195.865 0.817431 195.526 1.04654 195.246 1.33825C194.685 1.94601 194.387 2.75113 194.418 3.57764C194.41 4.13566 194.54 4.68699 194.798 5.18206C195.036 5.65326 195.404 6.04664 195.858 6.31593C196.332 6.5918 196.874 6.73111 197.423 6.71844C197.973 6.73718 198.518 6.60587 198.999 6.3386ZM198.693 3.5663C198.478 3.77432 198.197 3.90068 197.899 3.92347L199.084 5.5619H198.398L197.264 3.90079H196.697V5.5619H196.13V1.59338H197.752C198.087 1.57391 198.418 1.67887 198.681 1.88818C198.798 1.99462 198.888 2.12575 198.947 2.27193C199.006 2.41812 199.031 2.57564 199.021 2.73291C199.027 2.88447 199.001 3.03553 198.944 3.17622C198.888 3.3169 198.802 3.44404 198.693 3.54929V3.5663ZM196.686 3.42457H197.661C198.165 3.42457 198.415 3.20913 198.415 2.77827C198.421 2.68978 198.406 2.60111 198.372 2.51939C198.337 2.43766 198.284 2.36516 198.216 2.30771C198.049 2.19563 197.85 2.14182 197.649 2.15464H196.674L196.686 3.42457Z" fill="white"/>
</svg>
